<svg width="233" height="176" viewBox="0 0 233 176" fill="none" xmlns="http://www.w3.org/2000/svg">
<path d="M50.675 134.5H105.875L74.075 47.05L40.625 139H35.825L74.075 33.85L112.325 139H50.675V134.5ZM153.86 139H129.86V34H148.16C161.36 34 171.31 36.45 178.01 41.35C184.71 46.15 188.06 52.95 188.06 61.75C188.06 71.75 183.86 79.1 175.46 83.8C187.66 88.4 193.76 97.05 193.76 109.75C193.76 118.75 190.46 125.9 183.86 131.2C177.26 136.4 167.26 139 153.86 139ZM153.86 134.5C158.56 134.5 162.86 134.15 166.76 133.45C170.66 132.65 174.36 131.4 177.86 129.7C181.46 127.9 184.26 125.3 186.26 121.9C188.26 118.5 189.26 114.45 189.26 109.75C189.26 99.05 184.11 91.8 173.81 88L164.81 84.7L173.21 79.9C180.11 76.1 183.56 70.05 183.56 61.75C183.56 46.25 171.76 38.5 148.16 38.5H134.36V134.5H153.86Z" fill="#202632"/>
<path d="M2 88V11H231.5V166H117" stroke="#202632" stroke-width="3"/>
</svg>
