<svg width="350" height="350" viewBox="0 0 350 350" fill="none" xmlns="http://www.w3.org/2000/svg">
<circle cx="175" cy="175" r="175" fill="#202632"/>
<mask id="path-2-outside-1_27_38" maskUnits="userSpaceOnUse" x="92" y="117" width="161" height="110" fill="black">
<rect fill="white" x="92" y="117" width="161" height="110"/>
<path d="M108.675 221.5H163.875L132.075 134.05L98.625 226H93.825L132.075 120.85L170.325 226H108.675V221.5ZM211.86 226H187.86V121H206.16C219.36 121 229.31 123.45 236.01 128.35C242.71 133.15 246.06 139.95 246.06 148.75C246.06 158.75 241.86 166.1 233.46 170.8C245.66 175.4 251.76 184.05 251.76 196.75C251.76 205.75 248.46 212.9 241.86 218.2C235.26 223.4 225.26 226 211.86 226ZM211.86 221.5C216.56 221.5 220.86 221.15 224.76 220.45C228.66 219.65 232.36 218.4 235.86 216.7C239.46 214.9 242.26 212.3 244.26 208.9C246.26 205.5 247.26 201.45 247.26 196.75C247.26 186.05 242.11 178.8 231.81 175L222.81 171.7L231.21 166.9C238.11 163.1 241.56 157.05 241.56 148.75C241.56 133.25 229.76 125.5 206.16 125.5H192.36V221.5H211.86Z"/>
</mask>
<path d="M108.675 221.5H163.875L132.075 134.05L98.625 226H93.825L132.075 120.85L170.325 226H108.675V221.5ZM211.86 226H187.86V121H206.16C219.36 121 229.31 123.45 236.01 128.35C242.71 133.15 246.06 139.95 246.06 148.75C246.06 158.75 241.86 166.1 233.46 170.8C245.66 175.4 251.76 184.05 251.76 196.75C251.76 205.75 248.46 212.9 241.86 218.2C235.26 223.4 225.26 226 211.86 226ZM211.86 221.5C216.56 221.5 220.86 221.15 224.76 220.45C228.66 219.65 232.36 218.4 235.86 216.7C239.46 214.9 242.26 212.3 244.26 208.9C246.26 205.5 247.26 201.45 247.26 196.75C247.26 186.05 242.11 178.8 231.81 175L222.81 171.7L231.21 166.9C238.11 163.1 241.56 157.05 241.56 148.75C241.56 133.25 229.76 125.5 206.16 125.5H192.36V221.5H211.86Z" fill="white"/>
<path d="M108.675 221.5V220.5H107.675V221.5H108.675ZM163.875 221.5V222.5H165.303L164.815 221.158L163.875 221.5ZM132.075 134.05L133.015 133.708L132.075 131.124L131.135 133.708L132.075 134.05ZM98.625 226V227H99.3253L99.5647 226.342L98.625 226ZM93.825 226L92.8852 225.658L92.3971 227H93.825V226ZM132.075 120.85L133.015 120.508L132.075 117.925L131.135 120.508L132.075 120.85ZM170.325 226V227H171.753L171.265 225.658L170.325 226ZM108.675 226H107.675V227H108.675V226ZM108.675 222.5H163.875V220.5H108.675V222.5ZM164.815 221.158L133.015 133.708L131.135 134.392L162.935 221.842L164.815 221.158ZM131.135 133.708L97.6853 225.658L99.5647 226.342L133.015 134.392L131.135 133.708ZM98.625 225H93.825V227H98.625V225ZM94.7648 226.342L133.015 121.192L131.135 120.508L92.8852 225.658L94.7648 226.342ZM131.135 121.192L169.385 226.342L171.265 225.658L133.015 120.508L131.135 121.192ZM170.325 225H108.675V227H170.325V225ZM109.675 226V221.5H107.675V226H109.675ZM187.86 226H186.86V227H187.86V226ZM187.86 121V120H186.86V121H187.86ZM236.01 128.35L235.419 129.157L235.427 129.163L236.01 128.35ZM233.46 170.8L232.971 169.927L231.095 170.977L233.107 171.736L233.46 170.8ZM241.86 218.2L242.479 218.986L242.486 218.98L241.86 218.2ZM224.76 220.45L224.936 221.434L224.949 221.432L224.961 221.43L224.76 220.45ZM235.86 216.7L236.297 217.6L236.307 217.594L235.86 216.7ZM244.26 208.9L243.398 208.393L243.398 208.393L244.26 208.9ZM231.81 175L232.156 174.062L232.154 174.061L231.81 175ZM222.81 171.7L222.314 170.832L220.447 171.899L222.466 172.639L222.81 171.7ZM231.21 166.9L230.727 166.024L230.72 166.028L230.714 166.032L231.21 166.9ZM192.36 125.5V124.5H191.36V125.5H192.36ZM192.36 221.5H191.36V222.5H192.36V221.5ZM211.86 225H187.86V227H211.86V225ZM188.86 226V121H186.86V226H188.86ZM187.86 122H206.16V120H187.86V122ZM206.16 122C219.263 122 228.965 124.437 235.419 129.157L236.6 127.543C229.654 122.463 219.456 120 206.16 120V122ZM235.427 129.163C241.845 133.761 245.06 140.247 245.06 148.75H247.06C247.06 139.653 243.574 132.539 236.592 127.537L235.427 129.163ZM245.06 148.75C245.06 153.608 244.041 157.768 242.042 161.266C240.043 164.763 237.035 167.654 232.971 169.927L233.948 171.673C238.284 169.246 241.576 166.112 243.778 162.259C245.979 158.407 247.06 153.892 247.06 148.75H245.06ZM233.107 171.736C239.063 173.982 243.457 177.187 246.368 181.314C249.276 185.439 250.76 190.564 250.76 196.75H252.76C252.76 190.236 251.193 184.686 248.002 180.161C244.812 175.638 240.056 172.218 233.813 169.864L233.107 171.736ZM250.76 196.75C250.76 205.469 247.581 212.323 241.234 217.42L242.486 218.98C249.339 213.477 252.76 206.031 252.76 196.75H250.76ZM241.241 217.415C234.895 222.414 225.16 225 211.86 225V227C225.36 227 235.625 224.386 242.479 218.985L241.241 217.415ZM211.86 222.5C216.608 222.5 220.969 222.146 224.936 221.434L224.583 219.466C220.751 220.154 216.511 220.5 211.86 220.5V222.5ZM224.961 221.43C228.94 220.613 232.72 219.337 236.297 217.6L235.423 215.8C232 217.463 228.379 218.687 224.559 219.47L224.961 221.43ZM236.307 217.594C240.076 215.71 243.022 212.977 245.122 209.407L243.398 208.393C241.498 211.623 238.844 214.09 235.413 215.806L236.307 217.594ZM245.122 209.407C247.228 205.826 248.26 201.594 248.26 196.75H246.26C246.26 201.306 245.291 205.174 243.398 208.393L245.122 209.407ZM248.26 196.75C248.26 191.236 246.93 186.535 244.213 182.708C241.496 178.884 237.45 176.015 232.156 174.062L231.464 175.938C236.469 177.785 240.149 180.441 242.582 183.867C245.014 187.29 246.26 191.564 246.26 196.75H248.26ZM232.154 174.061L223.154 170.761L222.466 172.639L231.466 175.939L232.154 174.061ZM223.306 172.568L231.706 167.768L230.714 166.032L222.314 170.832L223.306 172.568ZM231.692 167.776C235.282 165.799 238.013 163.213 239.841 160.008C241.667 156.805 242.56 153.04 242.56 148.75H240.56C240.56 152.76 239.727 156.17 238.104 159.017C236.481 161.862 234.038 164.201 230.727 166.024L231.692 167.776ZM242.56 148.75C242.56 140.702 239.471 134.557 233.259 130.477C227.119 126.444 218.037 124.5 206.16 124.5V126.5C217.882 126.5 226.5 128.431 232.161 132.148C237.748 135.818 240.56 141.298 240.56 148.75H242.56ZM206.16 124.5H192.36V126.5H206.16V124.5ZM191.36 125.5V221.5H193.36V125.5H191.36ZM192.36 222.5H211.86V220.5H192.36V222.5Z" fill="white" mask="url(#path-2-outside-1_27_38)"/>
<path d="M60 175V98H289.5V253H175" stroke="white" stroke-width="5"/>
</svg>
