<svg width="581" height="176" viewBox="0 0 581 176" fill="none" xmlns="http://www.w3.org/2000/svg">
<path d="M50.675 134.5H105.875L74.075 47.05L40.625 139H35.825L74.075 33.85L112.325 139H50.675V134.5ZM153.86 139H129.86V34H148.16C161.36 34 171.31 36.45 178.01 41.35C184.71 46.15 188.06 52.95 188.06 61.75C188.06 71.75 183.86 79.1 175.46 83.8C187.66 88.4 193.76 97.05 193.76 109.75C193.76 118.75 190.46 125.9 183.86 131.2C177.26 136.4 167.26 139 153.86 139ZM153.86 134.5C158.56 134.5 162.86 134.15 166.76 133.45C170.66 132.65 174.36 131.4 177.86 129.7C181.46 127.9 184.26 125.3 186.26 121.9C188.26 118.5 189.26 114.45 189.26 109.75C189.26 99.05 184.11 91.8 173.81 88L164.81 84.7L173.21 79.9C180.11 76.1 183.56 70.05 183.56 61.75C183.56 46.25 171.76 38.5 148.16 38.5H134.36V134.5H153.86Z" fill="#202632"/>
<path d="M2 88V11H231.5V166H117" stroke="#202632" stroke-width="3"/>
<path d="M284.446 108H268.628L292.73 38.1818H311.753L335.821 108H320.003L302.514 54.1364H301.969L284.446 108ZM283.457 80.5568H320.821V92.0795H283.457V80.5568ZM344.224 108V38.1818H372.179C377.315 38.1818 381.599 38.9432 385.031 40.4659C388.463 41.9886 391.043 44.1023 392.77 46.8068C394.497 49.4886 395.361 52.5795 395.361 56.0795C395.361 58.8068 394.815 61.2045 393.724 63.2727C392.634 65.3182 391.134 67 389.224 68.3182C387.338 69.6136 385.179 70.5341 382.747 71.0795V71.7614C385.406 71.875 387.895 72.625 390.213 74.0114C392.554 75.3977 394.452 77.3409 395.906 79.8409C397.361 82.3182 398.088 85.2727 398.088 88.7045C398.088 92.4091 397.168 95.7159 395.327 98.625C393.509 101.511 390.815 103.795 387.247 105.477C383.679 107.159 379.281 108 374.054 108H344.224ZM358.986 95.9318H371.02C375.134 95.9318 378.134 95.1477 380.02 93.5795C381.906 91.9886 382.849 89.875 382.849 87.2386C382.849 85.3068 382.384 83.6023 381.452 82.125C380.52 80.6477 379.19 79.4886 377.463 78.6477C375.759 77.8068 373.724 77.3864 371.361 77.3864H358.986V95.9318ZM358.986 67.3977H369.929C371.952 67.3977 373.747 67.0455 375.315 66.3409C376.906 65.6136 378.156 64.5909 379.065 63.2727C379.997 61.9545 380.463 60.375 380.463 58.5341C380.463 56.0114 379.565 53.9773 377.77 52.4318C375.997 50.8864 373.474 50.1136 370.202 50.1136H358.986V67.3977ZM405.034 50.3523V38.1818H462.375V50.3523H441V108H426.409V50.3523H405.034ZM486.58 38.1818V108H471.818V38.1818H486.58Z" fill="#202632"/>
<path d="M268.587 125.295V122.909H289.68V125.295H280.462V152H277.805V125.295H268.587ZM293.661 152V122.909H310.536V125.295H296.317V136.247H309.641V138.634H296.317V149.614H310.82V152H293.661ZM331.206 130.182C331.045 128.562 330.33 127.275 329.061 126.318C327.792 125.362 326.196 124.884 324.274 124.884C322.92 124.884 321.727 125.116 320.695 125.58C319.672 126.044 318.867 126.687 318.28 127.511C317.702 128.326 317.413 129.254 317.413 130.295C317.413 131.062 317.579 131.735 317.911 132.312C318.242 132.89 318.687 133.387 319.246 133.804C319.814 134.211 320.439 134.562 321.121 134.855C321.812 135.149 322.508 135.395 323.209 135.594L326.277 136.474C327.205 136.73 328.133 137.057 329.061 137.455C329.989 137.852 330.837 138.354 331.604 138.96C332.38 139.557 333 140.291 333.464 141.162C333.938 142.024 334.175 143.061 334.175 144.273C334.175 145.826 333.772 147.223 332.967 148.463C332.162 149.704 331.007 150.688 329.501 151.418C327.996 152.137 326.192 152.497 324.089 152.497C322.11 152.497 320.392 152.17 318.933 151.517C317.475 150.854 316.329 149.94 315.496 148.776C314.662 147.611 314.194 146.261 314.089 144.727H316.817C316.911 145.873 317.29 146.844 317.953 147.639C318.616 148.435 319.478 149.041 320.538 149.457C321.599 149.865 322.783 150.068 324.089 150.068C325.538 150.068 326.826 149.827 327.953 149.344C329.089 148.851 329.98 148.17 330.624 147.298C331.277 146.418 331.604 145.395 331.604 144.23C331.604 143.245 331.348 142.421 330.837 141.759C330.325 141.086 329.61 140.523 328.692 140.068C327.783 139.614 326.727 139.211 325.524 138.861L322.044 137.838C319.762 137.156 317.991 136.214 316.732 135.011C315.472 133.809 314.842 132.275 314.842 130.409C314.842 128.847 315.259 127.473 316.092 126.29C316.935 125.097 318.071 124.169 319.501 123.506C320.941 122.833 322.555 122.497 324.345 122.497C326.154 122.497 327.754 122.829 329.146 123.491C330.538 124.154 331.642 125.068 332.456 126.233C333.28 127.388 333.72 128.705 333.777 130.182H331.206ZM336.805 125.295V122.909H357.899V125.295H348.68V152H346.024V125.295H336.805ZM364.536 122.909V152H361.879V122.909H364.536ZM392.926 122.909V152H390.341L373.153 127.639H372.926V152H370.27V122.909H372.841L390.085 147.298H390.312V122.909H392.926ZM418.788 132C418.523 131.034 418.135 130.13 417.624 129.287C417.112 128.435 416.478 127.691 415.72 127.057C414.972 126.413 414.106 125.911 413.121 125.551C412.145 125.191 411.056 125.011 409.854 125.011C407.96 125.011 406.265 125.504 404.768 126.489C403.272 127.473 402.089 128.894 401.217 130.75C400.356 132.606 399.925 134.841 399.925 137.455C399.925 140.059 400.36 142.289 401.232 144.145C402.103 146.001 403.296 147.426 404.811 148.42C406.336 149.405 408.078 149.898 410.038 149.898C411.828 149.898 413.41 149.5 414.783 148.705C416.156 147.909 417.226 146.773 417.993 145.295C418.769 143.818 419.148 142.062 419.129 140.026L419.982 140.295H410.663V137.909H421.714V140.295C421.714 142.777 421.213 144.921 420.209 146.73C419.205 148.539 417.827 149.936 416.075 150.92C414.323 151.905 412.311 152.398 410.038 152.398C407.5 152.398 405.28 151.787 403.376 150.565C401.473 149.334 399.991 147.601 398.93 145.366C397.879 143.122 397.354 140.485 397.354 137.455C397.354 135.172 397.657 133.113 398.263 131.276C398.869 129.438 399.726 127.866 400.834 126.56C401.951 125.253 403.272 124.254 404.797 123.562C406.321 122.862 408.007 122.511 409.854 122.511C411.445 122.511 412.898 122.762 414.214 123.264C415.54 123.766 416.705 124.457 417.709 125.338C418.722 126.209 419.551 127.218 420.195 128.364C420.848 129.5 421.288 130.712 421.516 132H418.788ZM438.215 122.909V152H435.559V122.909H438.215ZM466.606 122.909V152H464.021L446.833 127.639H446.606V152H443.95V122.909H446.521L463.765 147.298H463.992V122.909H466.606ZM488.136 130.182C487.975 128.562 487.26 127.275 485.991 126.318C484.722 125.362 483.126 124.884 481.204 124.884C479.85 124.884 478.656 125.116 477.624 125.58C476.602 126.044 475.797 126.687 475.21 127.511C474.632 128.326 474.343 129.254 474.343 130.295C474.343 131.062 474.509 131.735 474.84 132.312C475.172 132.89 475.617 133.387 476.175 133.804C476.744 134.211 477.369 134.562 478.05 134.855C478.742 135.149 479.438 135.395 480.138 135.594L483.207 136.474C484.135 136.73 485.063 137.057 485.991 137.455C486.919 137.852 487.766 138.354 488.533 138.96C489.31 139.557 489.93 140.291 490.394 141.162C490.868 142.024 491.104 143.061 491.104 144.273C491.104 145.826 490.702 147.223 489.897 148.463C489.092 149.704 487.937 150.688 486.431 151.418C484.925 152.137 483.121 152.497 481.019 152.497C479.04 152.497 477.321 152.17 475.863 151.517C474.405 150.854 473.259 149.94 472.425 148.776C471.592 147.611 471.123 146.261 471.019 144.727H473.746C473.841 145.873 474.22 146.844 474.883 147.639C475.546 148.435 476.407 149.041 477.468 149.457C478.529 149.865 479.712 150.068 481.019 150.068C482.468 150.068 483.756 149.827 484.883 149.344C486.019 148.851 486.909 148.17 487.553 147.298C488.207 146.418 488.533 145.395 488.533 144.23C488.533 143.245 488.278 142.421 487.766 141.759C487.255 141.086 486.54 140.523 485.621 140.068C484.712 139.614 483.656 139.211 482.454 138.861L478.974 137.838C476.692 137.156 474.921 136.214 473.661 135.011C472.402 133.809 471.772 132.275 471.772 130.409C471.772 128.847 472.189 127.473 473.022 126.29C473.865 125.097 475.001 124.169 476.431 123.506C477.871 122.833 479.485 122.497 481.275 122.497C483.084 122.497 484.684 122.829 486.076 123.491C487.468 124.154 488.571 125.068 489.386 126.233C490.21 127.388 490.65 128.705 490.707 130.182H488.136ZM498.153 122.909V152H495.496V122.909H498.153ZM524.015 132C523.75 131.034 523.362 130.13 522.85 129.287C522.339 128.435 521.704 127.691 520.947 127.057C520.199 126.413 519.332 125.911 518.347 125.551C517.372 125.191 516.283 125.011 515.08 125.011C513.186 125.011 511.491 125.504 509.995 126.489C508.499 127.473 507.315 128.894 506.444 130.75C505.582 132.606 505.151 134.841 505.151 137.455C505.151 140.059 505.587 142.289 506.458 144.145C507.329 146.001 508.522 147.426 510.038 148.42C511.562 149.405 513.305 149.898 515.265 149.898C517.055 149.898 518.636 149.5 520.009 148.705C521.382 147.909 522.452 146.773 523.219 145.295C523.996 143.818 524.375 142.062 524.356 140.026L525.208 140.295H515.89V137.909H526.941V140.295C526.941 142.777 526.439 144.921 525.435 146.73C524.432 148.539 523.054 149.936 521.302 150.92C519.55 151.905 517.538 152.398 515.265 152.398C512.727 152.398 510.506 151.787 508.603 150.565C506.7 149.334 505.218 147.601 504.157 145.366C503.106 143.122 502.58 140.485 502.58 137.455C502.58 135.172 502.883 133.113 503.489 131.276C504.095 129.438 504.952 127.866 506.06 126.56C507.178 125.253 508.499 124.254 510.023 123.562C511.548 122.862 513.234 122.511 515.08 122.511C516.671 122.511 518.125 122.762 519.441 123.264C520.767 123.766 521.932 124.457 522.935 125.338C523.949 126.209 524.777 127.218 525.421 128.364C526.075 129.5 526.515 130.712 526.742 132H524.015ZM531.536 152V122.909H534.192V136.247H550.697V122.909H553.354V152H550.697V138.634H534.192V152H531.536ZM557.305 125.295V122.909H578.399V125.295H569.18V152H566.524V125.295H557.305Z" fill="#202632"/>
</svg>
